<svg xmlns="http://www.w3.org/2000/svg" viewBox="0 0 700.32 224.64"><defs><style>.cls-1{fill:#fff;}</style></defs><g id="Layer_2" data-name="Layer 2"><g id="Layer_3" data-name="Layer 3"><path d="M62.6,214.65a9.44,9.44,0,0,1-3,7.1,9.86,9.86,0,0,1-7.1,2.83H13.05a9.23,9.23,0,0,1-6.76-3,9.37,9.37,0,0,1-2.94-6.7v-73a9.37,9.37,0,0,1,2.94-6.7,9.23,9.23,0,0,1,6.76-3h39.5a9.86,9.86,0,0,1,7.1,2.83,9.45,9.45,0,0,1,3,7.1v13.17h-26v-7.63c0-2.31-.85-3.46-2.54-3.46a7.36,7.36,0,0,0-3.23.46c-.85.39-1.27,1.27-1.27,2.66v62.13c0,1.39.42,2.27,1.27,2.66a7.36,7.36,0,0,0,3.23.46c1.69,0,2.54-1.16,2.54-3.47v-7.62h26Z" transform="translate(-3.35)"/><path d="M138.93,224.58H112.72V202.52H97.36v22.06H71.14V132.19H97.36v58.32h15.36V132.19h26.21Z" transform="translate(-3.35)"/><path d="M211.11,214.65a9.53,9.53,0,0,1-2.88,7.1,9.83,9.83,0,0,1-7.16,2.83h-39.5a10.3,10.3,0,0,1-9.7-9.7v-73a10.3,10.3,0,0,1,9.7-9.7h39.5a9.83,9.83,0,0,1,7.16,2.83,9.54,9.54,0,0,1,2.88,7.1Zm-26-5.55V147.66q0-3.47-2.54-3.46a7.45,7.45,0,0,0-3.24.46c-.84.39-1.27,1.27-1.27,2.66v62.13c0,1.39.43,2.27,1.27,2.66a7.45,7.45,0,0,0,3.24.46Q185.13,212.57,185.13,209.1Z" transform="translate(-3.35)"/><path d="M314.13,224.58H288.49V146.86a2.52,2.52,0,0,0-1.5-2.66,12.76,12.76,0,0,0-3.23-.23c-1.78,0-2.66,1-2.66,2.89v77.72H255.81v-78a2.22,2.22,0,0,0-1.62-2.42,12,12,0,0,0-3.12-.23,2.34,2.34,0,0,0-2.65,2.65v78H222.78V141.31a9.72,9.72,0,0,1,9.12-9.12H305a8.51,8.51,0,0,1,6.46,2.83,9.4,9.4,0,0,1,2.66,6.64Z" transform="translate(-3.35)"/><path d="M385.16,224.58H359.52V204.83a2.31,2.31,0,0,0-.93-1.73,2.92,2.92,0,0,0-2-.81h-5v22.29H325.79V132.19h25.87v58.32h5a2.92,2.92,0,0,0,2-.81,2.3,2.3,0,0,0,.93-1.73V132.19h25.64v54.86a8.7,8.7,0,0,1-2.66,6.58,9.31,9.31,0,0,1-6.7,2.54,9.19,9.19,0,0,1,6.7,2.6,8.88,8.88,0,0,1,2.66,6.64Z" transform="translate(-3.35)"/><path d="M456.87,186.24a9.54,9.54,0,0,1-2.88,7.1,9.83,9.83,0,0,1-7.16,2.83h-6.47v28.41H414.14V196.17h-6.81a10.3,10.3,0,0,1-9.7-9.7V132.19h26.21V181c0,1.39.43,2.27,1.27,2.66a7.61,7.61,0,0,0,3.24.46q2.53,0,2.54-3.47v-48.5h26Z" transform="translate(-3.35)"/><path d="M526.05,214.88a10.2,10.2,0,0,1-2.88,7,7.38,7.38,0,0,1-6.59,2.71H496.37a5.56,5.56,0,0,1-2.54-1.62c-.39-.61-.81-1.23-1.27-1.84v3.46H466.69V132.19h25.87v22.29h24A9.5,9.5,0,0,1,523.4,157a8.69,8.69,0,0,1,2.65,6.58Zm-25.64-5.2V168.8a2.32,2.32,0,0,0-.92-1.73,2.94,2.94,0,0,0-2-.81h-5V212.8h5a2.65,2.65,0,0,0,2-1A3.21,3.21,0,0,0,500.41,209.68Z" transform="translate(-3.35)"/><path d="M595.46,214.65a9.5,9.5,0,0,1-2.89,7.1,9.8,9.8,0,0,1-7.16,2.83H545.92a10.32,10.32,0,0,1-9.71-9.7v-50.7a10.32,10.32,0,0,1,9.71-9.7h39.49a9.8,9.8,0,0,1,7.16,2.83,9.51,9.51,0,0,1,2.89,7.1Zm-26-5.55V170c0-2.31-.85-3.46-2.54-3.46a7.45,7.45,0,0,0-3.24.46c-.85.39-1.27,1.27-1.27,2.66v39.84c0,1.39.42,2.27,1.27,2.66a7.45,7.45,0,0,0,3.24.46C568.63,212.57,569.48,211.41,569.48,209.1Z" transform="translate(-3.35)"/><path d="M633.69,138.66a12.62,12.62,0,0,1-3.87,9.35,12.78,12.78,0,0,1-9.3,3.81,12.58,12.58,0,0,1-9.24-3.81,12.72,12.72,0,0,1-3.81-9.35,13,13,0,0,1,13-13,12.78,12.78,0,0,1,9.3,3.81A12.48,12.48,0,0,1,633.69,138.66Zm0,85.92H607.47v-70.1h26.22Z" transform="translate(-3.35)"/><path d="M703.67,214.65a9.7,9.7,0,0,1-3,6.75,9,9,0,0,1-6.7,3.18h-39.5a9.64,9.64,0,0,1-7-3,9.78,9.78,0,0,1-3-7.16V201.25h26.21v7.62q0,3.47,2.54,3.47a7.61,7.61,0,0,0,3.24-.46c.84-.39,1.27-1.27,1.27-2.66V198.83c0-1.39-.43-2.27-1.28-2.66q-2-1.15-14.31-3.7-10.92-2.19-14.65-5.89a9.21,9.21,0,0,1-3-6.69V164.18a10.3,10.3,0,0,1,9.7-9.7h39.5a9.83,9.83,0,0,1,7.16,2.83,9.54,9.54,0,0,1,2.88,7.1v13.17h-26V170c0-2.31-.85-3.46-2.54-3.46a7.45,7.45,0,0,0-3.24.46c-.84.39-1.27,1.27-1.27,2.66v10.62c0,1.39.43,2.27,1.27,2.66q1.74.93,14.44,4,11.65,2.77,14.32,5.43a9.39,9.39,0,0,1,3,6.81Z" transform="translate(-3.35)"/></g><g id="Layer_5" data-name="Layer 5"><path d="M517.57,205.89a9.27,9.27,0,0,1-2.15-.28,7.34,7.34,0,0,1-4.2-2.9c-3.61-5.79-6.49-17.29-6.43-25.64V177c1-4.52-.85-7.78-6.66-11.64-11.86-7.88-24.8-9.75-38.49-11.74-1.95-.28-3.91-.56-5.86-.86-23.83-3.68-51.14-9.15-73.52-27.56-1.37-1.59-6.88-2.9-10.18-3.68-2.45-.58-5-1.23-7.42-1.86-4.14-1.07-8.43-2.17-12.59-3-5-1-5-1-5.47-1.06-12.47-1.58-23.26-5.84-33.69-10-3.14-1.24-6.39-2.52-9.65-3.72A33.12,33.12,0,0,0,285,100l-.52.07a23,23,0,0,1-3.06.28A5.16,5.16,0,0,1,276,96.61c-1.59-4.31-2.7-9.31,1.18-13.64,2.1-2.34,4.32-4.67,6.45-6.91s4.43-4.65,6.57-7c1.64-1.83,2.34-3.5,2.08-5s-1.62-2.94-4-4.2l-.54-.28c-2.5-1.31-5.09-2.67-5.85-5.11-.48-1.53-.17-3.29.93-5.38a4.3,4.3,0,0,0-.36-2.94c-4.7-11.28,1.77-19.86,7-25.33,3.08-3.2,4.69-5.91,3.76-10.34,0-.2-.09-.39-.14-.59a5.85,5.85,0,0,1-.22-2.58c.34-1.51.84-3,1.32-4.43.19-.59.39-1.18.58-1.77L295,.63l.48.16c.67.21,1.44.37,2.18.53,1.74.36,3.55.73,4.54,1.9C304.42,5.85,306.4,7,308.59,7a10.38,10.38,0,0,0,4.94-1.56,14.21,14.21,0,0,1,7.07-1.76,38.54,38.54,0,0,1,9,1.47c1.22.3,2.49.61,3.73.87,4.47.9,9.08,1.57,13.53,2.22,5.57.82,11.33,1.66,16.9,3,6.33,1.49,12.67,3.41,18.79,5.26,5.42,1.64,11,3.33,16.61,4.72,10.92,2.72,22.84,5.25,37.51,8a57.51,57.51,0,0,1,18.59,6.36c7.42,4.15,15.67,7.13,23.66,10,2.36.85,4.71,1.7,7.05,2.58l4.42,1.67c12.92,4.88,26.29,9.92,39.61,14.33a32,32,0,0,0,10,1.68c7.71,0,15.24-3.08,22.4-9.17l2-1.73c2.56-2.2,5.21-4.48,8-6.47A6.32,6.32,0,0,1,575.78,47c2,0,2.46,2.42,2.63,4.53.7,8.89-4.55,14.69-9.64,20.3l-1.71,1.9c-8.56,9.65-19,14.54-31,14.54a50.5,50.5,0,0,1-9-.84,10,10,0,0,0-1.71-.18,2.06,2.06,0,0,0-1.62.51c-.49.54-.6,1.64-.39,3.68.48,4.62.78,9.34,1.06,13.9.39,6,.78,12.3,1.6,18.38,1.32,9.69,3.51,19.42,5.63,28.84l.53,2.33c1.07,4.78,2.39,9.58,3.67,14.24.8,2.91,1.63,5.93,2.39,8.92,1.36,5.34.44,9.88-2.67,13.12a10.44,10.44,0,0,1-6.71,3,5.06,5.06,0,0,1-.79-.06,9.44,9.44,0,0,0-1.52-.15c-1.82,0-2.15.82-2.28,3.46C524.05,202.79,521.59,205.89,517.57,205.89Z" transform="translate(-3.35)"/><path class="cls-1" d="M295.28,1.26c2.22.72,5.21.77,6.5,2.28,2.23,2.6,4.31,4,6.81,4a10.86,10.86,0,0,0,5.18-1.62,13.7,13.7,0,0,1,6.83-1.7c4.17,0,8.4,1.47,12.61,2.33,10.07,2,20.42,2.84,30.41,5.18,11.92,2.8,23.51,7,35.4,10,12.4,3.09,25,5.64,37.54,8A57.44,57.44,0,0,1,455,36c9.61,5.37,20.39,8.71,30.78,12.63,14.62,5.51,29.22,11.1,44.05,16A32.16,32.16,0,0,0,540,66.32c8.23,0,15.82-3.42,22.72-9.28,3.28-2.79,6.5-5.69,10-8.19a6,6,0,0,1,3.07-1.39c1.31,0,1.92,1.37,2.13,4.07.76,9.65-5.59,15.49-11.23,21.83-8.56,9.65-18.77,14.37-30.59,14.37a50.33,50.33,0,0,1-8.9-.83,9.94,9.94,0,0,0-1.8-.19c-2.48,0-2.84,1.53-2.51,4.75,1.12,10.74,1.22,21.6,2.67,32.29,1.42,10.49,3.83,20.86,6.16,31.21,1.74,7.78,4.09,15.43,6.07,23.17,1.17,4.59.74,9.21-2.56,12.66a10,10,0,0,1-6.33,2.86,4.2,4.2,0,0,1-.72-.06,10.23,10.23,0,0,0-1.6-.15c-2.33,0-2.66,1.34-2.77,3.94-.24,5.14-2.54,8-6.23,8a8.76,8.76,0,0,1-2-.26,6.83,6.83,0,0,1-3.89-2.69c-3.59-5.75-6.42-17.17-6.36-25.37,1.16-5.17-1.45-8.56-6.87-12.17-13.69-9.09-29.12-10.29-44.56-12.68-26.24-4.05-51.93-9.89-73.27-27.44-1.41-1.65-6.8-2.94-10.38-3.79-6.59-1.56-13.39-3.54-20-4.86-5-1-5-1-5.51-1.07-16.13-2-29.06-8.44-43.23-13.64a34.55,34.55,0,0,0-12.11-2.26,33.57,33.57,0,0,0-4.44.3,29.45,29.45,0,0,1-3.52.34,4.65,4.65,0,0,1-4.9-3.36c-1.65-4.48-2.52-9.11,1.08-13.13,4.25-4.74,8.78-9.21,13-14,3.65-4.08,2.84-7.35-2.05-9.94-4-2.12-8.43-4.08-5.25-10.1.44-.84.09-2.35-.34-3.36-4.21-10.1.51-18.13,6.94-24.8,3.36-3.48,4.81-6.36,3.89-10.79a7.43,7.43,0,0,1-.36-2.95c.47-2.09,1.24-4.11,1.88-6.16M294.63,0l-.3,1c-.19.59-.38,1.17-.58,1.76-.48,1.45-1,2.95-1.33,4.48a6.24,6.24,0,0,0,.23,2.8c0,.2.09.39.13.58.78,3.72-.17,6.31-3.63,9.89-5.37,5.57-12,14.32-7.14,25.87a3.83,3.83,0,0,1,.37,2.51c-1.16,2.22-1.48,4.1-1,5.77.82,2.64,3.5,4,6.1,5.4l.53.29c2.24,1.18,3.49,2.47,3.74,3.83s-.43,2.83-2,4.55c-2.13,2.38-4.38,4.74-6.56,7s-4.35,4.58-6.47,6.93c-4.05,4.52-2.91,9.69-1.27,14.15a5.62,5.62,0,0,0,5.84,4,23.78,23.78,0,0,0,3.13-.28l.52-.07a33.31,33.31,0,0,1,4.31-.29,33.77,33.77,0,0,1,11.77,2.2c3.26,1.2,6.5,2.48,9.64,3.71,10.46,4.13,21.27,8.39,33.8,10,.47.06.52.07,5.44,1.06,4.15.83,8.43,1.93,12.57,3,2.44.63,5,1.28,7.43,1.87,3,.71,8.65,2,9.85,3.46l.06.06.07.06c22.47,18.49,49.85,24,73.75,27.66,2,.3,3.91.59,5.87.87,13.63,2,26.52,3.84,38.28,11.66,5.68,3.77,7.42,6.78,6.45,11.11l0,.1v.11c-.06,8.43,2.86,20.06,6.51,25.91a7.83,7.83,0,0,0,4.5,3.13,9.74,9.74,0,0,0,2.27.29c4.27,0,7-3.36,7.22-9,.14-2.85.53-3,1.78-3a9.36,9.36,0,0,1,1.43.14,6.3,6.3,0,0,0,.89.07,11,11,0,0,0,7.06-3.17c3.23-3.38,4.2-8.08,2.79-13.6-.76-3-1.59-6-2.39-8.94-1.28-4.64-2.6-9.44-3.67-14.2l-.52-2.33c-2.12-9.41-4.31-19.13-5.62-28.79-.82-6.07-1.22-12.31-1.6-18.35-.28-4.56-.58-9.29-1.06-13.92-.12-1.16-.23-2.76.26-3.3.08-.08.31-.34,1.25-.34a9.91,9.91,0,0,1,1.62.17,50.59,50.59,0,0,0,9.08.85c12.14,0,22.68-5,31.34-14.7l1.71-1.91c5.16-5.68,10.49-11.56,9.77-20.67-.11-1.36-.4-5-3.13-5A6.68,6.68,0,0,0,572.13,48c-2.81,2-5.47,4.29-8,6.5-.67.58-1.34,1.16-2,1.73-7.06,6-14.49,9-22.07,9a31.4,31.4,0,0,1-9.87-1.66c-13.31-4.4-26.66-9.44-39.58-14.32l-4.43-1.67c-2.34-.88-4.73-1.74-7.05-2.58-8-2.88-16.21-5.86-23.59-10a58.12,58.12,0,0,0-18.74-6.41c-14.67-2.72-26.58-5.25-37.48-8-5.57-1.39-11.17-3.08-16.59-4.72-6.13-1.86-12.47-3.77-18.82-5.26-5.59-1.31-11.36-2.16-16.94-3-4.45-.65-9-1.32-13.5-2.22-1.23-.25-2.49-.56-3.71-.86a38.79,38.79,0,0,0-9.1-1.49A14.68,14.68,0,0,0,313.28,5a9.92,9.92,0,0,1-4.69,1.49c-2.06,0-3.86-1.09-6-3.64-1.11-1.29-3-1.69-4.82-2.06a20.79,20.79,0,0,1-2.13-.52l-1-.31Z" transform="translate(-3.35)"/></g></g></svg>